<mxfile host="app.diagrams.net" modified="2023-09-26T12:45:16.013Z" agent="Mozilla/5.0 (Windows NT 10.0; Win64; x64) AppleWebKit/537.36 (KHTML, like Gecko) Chrome/117.0.0.0 Safari/537.36" version="21.8.2" etag="tDYghTGq4BlQmwrZhTTC" type="github">
  <diagram name="Page-1" id="AQxUDb2QW_URMcfo902K">
    <mxGraphModel>
      <root>
        <mxCell id="0" />
        <mxCell id="1" parent="0" />
      </root>
    </mxGraphModel>
  </diagram>
</mxfile>
